<svg width="68" height="68" viewBox="0 0 68 68" fill="none" xmlns="http://www.w3.org/2000/svg">
<path fill-rule="evenodd" clip-rule="evenodd" d="M34 64.2118C50.6855 64.2118 64.2118 50.6855 64.2118 34C64.2118 17.3145 50.6855 3.78818 34 3.78818C17.3145 3.78818 3.78818 17.3145 3.78818 34C3.78818 50.6855 17.3145 64.2118 34 64.2118ZM34 68C52.7777 68 68 52.7777 68 34C68 15.2223 52.7777 0 34 0C15.2223 0 0 15.2223 0 34C0 52.7777 15.2223 68 34 68Z" fill="#304F42"/>
<path fill-rule="evenodd" clip-rule="evenodd" d="M14.8778 34.7389C14.8998 31.661 14.9178 26.3767 14.9178 22.9959V16.8489H22.9667V18.8011C22.9667 19.8809 22.9903 20.7533 23.0194 20.7533C23.0484 20.7533 23.1087 20.7092 23.1535 20.6553C23.1982 20.6014 23.438 20.4045 23.6864 20.2178C26.3051 18.2491 30.0304 17.0252 33.8839 16.8677L34.7999 16.8303L34.8 19.1071C34.8001 20.3594 34.8179 22.1746 34.8397 23.1409L34.8793 24.8979H34.4168C33.3422 24.8979 31.9979 25.1288 30.8655 25.5078C27.1435 26.7538 24.2532 29.9635 23.2406 33.9752C22.9723 35.0381 22.9432 35.4236 22.9409 37.9474L22.9388 40.3351H14.8379L14.8778 34.7389ZM49.8815 22.7154C50.8609 21.8056 52.0524 21.1354 53.8538 20.4813C54.1607 20.3698 54.4822 20.2773 54.5684 20.2757C54.7203 20.2728 54.7271 20.2886 54.7953 20.7983C54.9282 21.7922 54.9792 22.5272 54.9808 23.467C54.9833 25.0047 54.8395 25.7142 54.3195 26.7299C53.9099 27.5297 53.533 28.0349 52.7928 28.7758C51.7751 29.7946 50.5678 30.5315 49.1258 31.0141C48.2228 31.3163 48.0146 31.3614 48.0146 31.2548C48.0146 31.211 48.125 30.9234 48.2599 30.6157C48.3948 30.3081 48.588 29.7404 48.6891 29.3542C48.8573 28.7125 48.8734 28.5667 48.8769 27.6609C48.8811 26.5913 48.7995 26.1498 48.4536 25.3681L48.3028 25.0275L48.57 24.4671C48.9006 23.774 49.2628 23.2902 49.8815 22.7154ZM44.831 27.4004C44.831 26.7347 45.1429 25.5679 45.568 24.6426C45.7009 24.3535 45.8306 24.117 45.8563 24.117C45.9804 24.117 46.7063 24.7923 47.0506 25.2282C47.661 26.0009 47.8351 26.5378 47.8334 27.6427C47.832 28.6339 47.5685 29.6549 47.0536 30.6642C46.9402 30.8864 46.9185 30.9009 46.7964 30.836C46.5631 30.712 45.8471 29.9863 45.5982 29.6213C45.1453 28.9574 44.831 28.0477 44.831 27.4004ZM34.86 40.3351V32.5264H54.6089L54.6541 33.6526C54.6988 34.7623 54.625 36.9025 54.4972 38.2027C54.2539 40.6791 53.6892 42.9507 52.9148 44.5684C52.5842 45.2588 51.5045 46.9853 50.8453 47.8775C49.2907 49.9816 47.1261 51.9138 44.8611 53.2194C43.1757 54.1909 41.4084 54.8922 39.4851 55.3527C38.1057 55.683 36.5453 55.8924 35.4632 55.8924H34.86V48.2264L35.7159 48.1571C38.9149 47.8978 41.5379 46.5148 43.7161 43.9391C44.5237 42.9839 45.4424 41.5226 45.7907 40.6389L45.9105 40.3351H34.86Z" fill="#304F42"/>
</svg>
